<svg xmlns="http://www.w3.org/2000/svg" width="24" height="24" viewBox="0 0 24 24" fill="none">
  <path fill-rule="evenodd" clip-rule="evenodd" d="M20 18.9953C20.2761 18.9953 20.5 18.7714 20.5 18.4953V18.2161C20.5 18.0837 20.4475 17.9568 20.354 17.863L18.6322 16.137C18.5387 16.0432 18.4862 15.9163 18.4862 15.7839V10.4977C18.4862 8.96401 18.0179 7.61033 17.0813 6.43662C16.1446 5.26291 14.9426 4.50391 13.4752 4.15962V3.50235C13.4752 3.06416 13.3347 2.70423 13.0537 2.42254C12.7727 2.14085 12.4215 2 12 2C11.5785 2 11.2195 2.14085 10.9229 2.42254C10.6263 2.70423 10.478 3.06416 10.478 3.50235V4.15962C9.04178 4.50391 7.85537 5.26291 6.91873 6.43662C5.98209 7.61033 5.51377 8.96401 5.51377 10.4977V15.7839C5.51377 15.9163 5.46127 16.0432 5.36777 16.137L3.64601 17.863C3.55251 17.9568 3.5 18.0837 3.5 18.2161V18.4953C3.5 18.7714 3.72386 18.9953 4 18.9953H20ZM16.4722 17.0235H7.48047V10.4976C7.48047 9.24569 7.91757 8.18152 8.79176 7.30515C9.66596 6.42879 10.7275 5.9906 11.9763 5.9906C13.2252 5.9906 14.2867 6.42879 15.1609 7.30515C16.0351 8.18152 16.4722 9.24569 16.4722 10.4976V17.0235ZM11.9765 22C12.5412 22 13.0196 21.8016 13.4118 21.4048C13.8039 21.0079 14 20.5397 14 20H10C10 20.5397 10.1961 21.0079 10.5882 21.4048C10.9804 21.8016 11.4431 22 11.9765 22Z" fill="white"/>
</svg>