<svg width="28" height="28" viewBox="0 0 28 28" fill="none" xmlns="http://www.w3.org/2000/svg">
<path d="M0 14C0 6.26801 6.26801 0 14 0C21.732 0 28 6.26801 28 14C28 21.732 21.732 28 14 28C6.26801 28 0 21.732 0 14Z" fill="#E2E7E9"/>
<path fill-rule="evenodd" clip-rule="evenodd" d="M18.6825 19.8929C18.8506 20.061 19.123 20.061 19.2911 19.8929L19.8929 19.2911C20.0609 19.1231 20.0609 18.8506 19.8929 18.6825L15.396 14.1856L19.8929 9.68873C20.0609 9.52067 20.0609 9.24818 19.8929 9.08011L19.2911 8.47834C19.123 8.31028 18.8506 8.31028 18.6825 8.47834L14.1856 12.9752L9.6887 8.47834C9.52064 8.31028 9.24815 8.31028 9.08008 8.47834L8.47831 9.08011C8.31025 9.24818 8.31025 9.52067 8.47831 9.68873L12.9752 14.1856L8.47831 18.6825C8.31025 18.8506 8.31025 19.1231 8.47831 19.2911L9.08008 19.8929C9.24815 20.061 9.52064 20.061 9.6887 19.8929L14.1856 15.396L18.6825 19.8929Z" fill="#2B293F"/>
</svg>
