<svg xmlns="http://www.w3.org/2000/svg" width="24" height="24" viewBox="0 0 24 24" fill="none">
  <path fill-rule="evenodd" clip-rule="evenodd" d="M12 22C13.3146 22 14.59 21.7496 15.8263 21.2488C17.0626 20.748 18.1502 20.0282 19.0892 19.0892C20.0282 18.1502 20.748 17.0626 21.2488 15.8263C21.7496 14.59 22 13.3146 22 12C22 10.6854 21.7496 9.41002 21.2488 8.17371C20.748 6.9374 20.0282 5.84977 19.0892 4.9108C18.1502 3.97183 17.0626 3.25196 15.8263 2.75117C14.59 2.25039 13.3146 2 12 2C10.6854 2 9.41002 2.25039 8.17371 2.75117C6.9374 3.25196 5.84977 3.97183 4.9108 4.9108C3.97183 5.84977 3.25196 6.9374 2.75117 8.17371C2.25039 9.41002 2 10.6854 2 12C2 13.3146 2.25039 14.59 2.75117 15.8263C3.25196 17.0626 3.97183 18.1502 4.9108 19.0892C5.84977 20.0282 6.9374 20.748 8.17371 21.2488C9.41002 21.7496 10.6854 22 12 22ZM12 20C10.5653 20 9.23197 19.6413 8 18.924C6.76803 18.2066 5.79337 17.232 5.07602 16C4.35867 14.768 4 13.4347 4 12C4 10.5653 4.35867 9.23197 5.07602 8C5.79337 6.76803 6.76803 5.79337 8 5.07602C9.23197 4.35867 10.5653 4 12 4C13.4347 4 14.768 4.35867 16 5.07602C17.232 5.79337 18.2066 6.76803 18.924 8C19.6413 9.23197 20 10.5653 20 12C20 13.4347 19.6413 14.768 18.924 16C18.2066 17.232 17.232 18.2066 16 18.924C14.768 19.6413 13.4347 20 12 20ZM12 8C12.5523 8 13 7.55228 13 7C13 6.44772 12.5523 6 12 6C11.4477 6 11 6.44772 11 7C11 7.55228 11.4477 8 12 8ZM12 18C12.5523 18 13 17.5523 13 17V11C13 10.4477 12.5523 10 12 10C11.4477 10 11 10.4477 11 11V17C11 17.5523 11.4477 18 12 18Z" fill="white"/>
</svg>