<svg xmlns="http://www.w3.org/2000/svg" width="24" height="24" viewBox="0 0 24 24" fill="none">
  <path fill-rule="evenodd" clip-rule="evenodd" d="M12 22C13.8153 22 15.4898 21.554 17.0235 20.662C18.5571 19.77 19.77 18.5571 20.662 17.0235C21.554 15.4898 22 13.8153 22 12C22 10.1847 21.554 8.51017 20.662 6.97653C19.77 5.44288 18.5571 4.23005 17.0235 3.33803C15.4898 2.44601 13.8153 2 12 2C10.1847 2 8.51017 2.44601 6.97653 3.33803C5.44288 4.23005 4.23005 5.44288 3.33803 6.97653C2.44601 8.51017 2 10.1847 2 12C2 13.8153 2.44601 15.4898 3.33803 17.0235C4.23005 18.5571 5.44288 19.77 6.97653 20.662C8.51017 21.554 10.1847 22 12 22ZM12.0001 20.0282C10.5603 20.0282 9.22231 19.6682 7.98601 18.9484C6.7497 18.2285 5.77161 17.2504 5.05174 16.0141C4.33186 14.7778 3.97192 13.4398 3.97192 12C3.97192 10.5603 4.33186 9.22222 5.05174 7.98592C5.77161 6.74961 6.7497 5.77152 7.98601 5.05164C9.22231 4.33177 10.5603 3.97183 12.0001 3.97183C13.4398 3.97183 14.7779 4.33177 16.0142 5.05164C17.2505 5.77152 18.2286 6.74961 18.9485 7.98592C19.6683 9.22222 20.0283 10.5603 20.0283 12C20.0283 13.4398 19.6683 14.7778 18.9485 16.0141C18.2286 17.2504 17.2505 18.2285 16.0142 18.9484C14.7779 19.6682 13.4398 20.0282 12.0001 20.0282ZM14.5882 16L16 14.5882L13.4118 12L16 9.41176L14.5882 8L12 10.5882L9.41176 8L8 9.41176L10.5882 12L8 14.5882L9.41176 16L12 13.4118L14.5882 16Z" fill="white"/>
</svg>