<svg xmlns="http://www.w3.org/2000/svg" width="24" height="24" viewBox="0 0 24 24" fill="none">
  <path fill-rule="evenodd" clip-rule="evenodd" d="M17.2245 18.6308C17.4198 18.8261 17.7363 18.8261 17.9316 18.6308L18.6307 17.9317C18.826 17.7364 18.826 17.4198 18.6307 17.2246L13.4062 12L18.6307 6.77541C18.826 6.58015 18.826 6.26357 18.6307 6.06831L17.9316 5.36916C17.7363 5.1739 17.4198 5.1739 17.2245 5.36916L11.9999 10.5937L6.77535 5.36916C6.58009 5.1739 6.26351 5.1739 6.06825 5.36916L5.3691 6.06831C5.17384 6.26357 5.17384 6.58015 5.3691 6.77541L10.5937 12L5.3691 17.2246C5.17384 17.4198 5.17384 17.7364 5.3691 17.9317L6.06825 18.6308C6.26351 18.8261 6.58009 18.8261 6.77535 18.6308L11.9999 13.4062L17.2245 18.6308Z" fill="#1F2124"/>
</svg>