
<svg width="20" height="20" viewBox="0 0 20 20" fill="none" xmlns="http://www.w3.org/2000/svg">
<path fill-rule="evenodd" clip-rule="evenodd" d="M10 0C10.3248 0 10.6411 0.103935 10.9025 0.2966L19.1864 6.4005C19.698 6.77747 20 7.37513 20 8.01062V19C20 19.5523 19.5523 20 19 20H13C12.4477 20 12 19.5523 12 19V14C12 12.8954 11.1046 12 10 12C8.89543 12 8 12.8954 8 14V19C8 19.5523 7.55228 20 7 20H1C0.447715 20 0 19.5523 0 19V8.01062C0 7.37513 0.302003 6.77747 0.813602 6.4005L9.09747 0.2966C9.35895 0.103935 9.67521 0 10 0ZM18 8.01061L10 2.11499L2 8.01061V18H6V14C6 11.8578 7.68397 10.1089 9.80036 10.0049L10 9.99999C12.1422 9.99999 13.8911 11.684 13.9951 13.8004L14 14V18H18V8.01061Z" fill="#5F68AE"/>
</svg>
