
<svg width="24" height="24" viewBox="0 0 24 24" fill="none" xmlns="http://www.w3.org/2000/svg">
<path fill-rule="evenodd" clip-rule="evenodd" d="M17.9844 22C18.5469 22 19.0234 21.8047 19.4141 21.4141C19.8047 21.0234 20 20.5469 20 19.9844V4.01562C20 3.45312 19.8047 2.97656 19.4141 2.58594C19.0234 2.19531 18.5469 2 17.9844 2H6.01562C5.45312 2 4.97656 2.19531 4.58594 2.58594C4.19531 2.97656 4 3.45312 4 4.01562V19.9844C4 20.5469 4.19531 21.0234 4.58594 21.4141C4.97656 21.8047 5.45312 22 6.01562 22H17.9844ZM18 19.9844H6V4.01562H18V19.9844ZM13.5 14L16 18H8L8.53798 17.193L10 15L11.5 17L13.5 14ZM8 6.5C8 6.22386 8.22386 6 8.5 6H15.5C15.7761 6 16 6.22386 16 6.5V7.5C16 7.77614 15.7761 8 15.5 8H8.5C8.22386 8 8 7.77614 8 7.5V6.5ZM8.5 9C8.22386 9 8 9.22386 8 9.5V10.5C8 10.7761 8.22386 11 8.5 11H12.5C12.7761 11 13 10.7761 13 10.5V9.5C13 9.22386 12.7761 9 12.5 9H8.5Z" fill="#5F68AE"/>
</svg>
