<svg xmlns="http://www.w3.org/2000/svg" version="1.1" xmlns:xlink="http://www.w3.org/1999/xlink" width="20" height="20" x="0" y="0" viewBox="0 0 2833 2833" style="enable-background:new 0 0 20 20" xml:space="preserve" fill-rule="evenodd" class=""><g><linearGradient id="a" x1="-.004" x2="2833.33" y1="1416.67" y2="1416.67" gradientUnits="userSpaceOnUse"><stop offset="0" stop-color="#26a9e0"></stop><stop offset=".09" stop-color="#2297d3"></stop><stop offset=".231" stop-color="#1e84c6"></stop><stop offset=".369" stop-color="#1c79be"></stop><stop offset=".522" stop-color="#1b75bb"></stop><stop offset=".961" stop-color="#2b388f"></stop><stop offset="1" stop-color="#2b388f"></stop></linearGradient><circle cx="1417" cy="1417" r="1417" fill="url(#a)" opacity="1" data-original="url(#a)" class=""></circle><g fill="#fff"><path d="M1765 2012H809c-11 0-20-9-20-20V616c0-11 9-20 20-20h858v278c0 11 9 20 20 20h278v408c-10-1-20-2-31-2-61 0-119 15-170 41H946c-11 0-20 9-20 20s9 20 20 20h756c-31 24-58 53-80 86H946c-11 0-20 9-20 20s9 20 20 20h652c-13 27-24 56-31 86H946c-11 0-20 9-20 20s9 20 20 20h615c-2 14-3 29-3 43 0 15 1 29 3 43H946c-11 0-20 9-20 20s9 20 20 20h622c6 31 17 60 31 87H946c-11 0-20 9-20 20s9 20 20 20h676c36 53 86 97 143 126zM1509 876H941c-11 0-20-9-20-20s9-20 20-20h568c11 0 20 9 20 20s-9 20-20 20zm300 126H946c-11 0-20-9-20-20s9-20 20-20h863c11 0 20 9 20 20s-9 20-20 20zm0 126H946c-11 0-20-9-20-20s9-20 20-20h863c11 0 20 9 20 20s-9 20-20 20zm0 126H946c-11 0-20-9-20-20s9-20 20-20h863c11 0 20 9 20 20s-9 20-20 20zm-102-647 247 247h-247z" fill="#ffffff" opacity="1" data-original="#ffffff" class=""></path><path d="M1510 2238H583c-11 0-20-9-20-20V919c0-11 9-20 20-20h166v1093c0 33 27 60 60 60h721v166c0 11-9 20-20 20zM1934 2012c-185 0-336-151-336-336s151-336 336-336 336 151 336 336-151 336-336 336zm-38-146c0 11 9 20 20 20s20-9 20-20v-40h21c47 0 85-38 85-85s-38-85-85-85h-46c-25 0-45-20-45-45s20-45 45-45h111c11 0 20-9 20-20s-9-20-20-20h-56v-40c0-11-9-20-20-20s-20 9-20 20v40h-15c-47 0-85 38-85 85s38 85 85 85h46c25 0 45 20 45 45s-20 45-45 45h-111c-11 0-20 9-20 20s9 20 20 20h50z" fill="#ffffff" opacity="1" data-original="#ffffff" class=""></path></g></g></svg>