<svg xmlns="http://www.w3.org/2000/svg" width="24" height="24" viewBox="0 0 24 24" fill="none">
  <path d="M13 10C13 10.5523 12.5523 11 12 11C11.4477 11 11 10.5523 11 10C11 9.44772 11.4477 9 12 9C12.5523 9 13 9.44772 13 10Z" fill="#1F2124"/>
  <path d="M12 17C12.5523 17 13 16.5523 13 16V13C13 12.4477 12.5523 12 12 12C11.4477 12 11 12.4477 11 13V16C11 16.5523 11.4477 17 12 17Z" fill="#1F2124"/>
  <path fill-rule="evenodd" clip-rule="evenodd" d="M12.0001 3C12.2713 3 12.525 3.12509 12.6902 3.33493L12.7554 3.42993L21.7214 18.5306C21.8734 18.7866 21.9023 19.0948 21.8053 19.3718L21.7501 19.5C21.6139 19.7724 21.3513 19.9556 21.054 19.9929L20.9411 20H3.05911C2.75457 20 2.47327 19.8471 2.30691 19.5979L2.24425 19.4883C2.1111 19.222 2.10442 18.9125 2.22121 18.6432L2.27882 18.5306L11.2448 3.42993C11.4031 3.16339 11.6901 3 12.0001 3ZM12.0002 6.07501L4.91919 18H19.0802L12.0002 6.07501Z" fill="#1F2124"/>
</svg>